<svg id="visual" viewBox="0 0 900 900" width="900" height="900" xmlns="http://www.w3.org/2000/svg" xmlns:xlink="http://www.w3.org/1999/xlink" version="1.1"><rect x="0" y="0" width="900" height="900" fill="#120e16"></rect><defs><linearGradient id="grad1_0" x1="0%" y1="0%" x2="100%" y2="100%"><stop offset="30%" stop-color="#120e16" stop-opacity="1"></stop><stop offset="70%" stop-color="#120e16" stop-opacity="1"></stop></linearGradient></defs><defs><linearGradient id="grad2_0" x1="0%" y1="0%" x2="100%" y2="100%"><stop offset="30%" stop-color="#120e16" stop-opacity="1"></stop><stop offset="70%" stop-color="#120e16" stop-opacity="1"></stop></linearGradient></defs><g transform="translate(900, 0)"><path d="M0 477.3C-13 396.8 -26 316.3 -49.3 311.1C-72.6 305.9 -106.2 376 -128.6 395.6C-150.9 415.3 -162 384.4 -197.5 387.6C-233 390.8 -292.8 428.1 -280.5 386.1C-268.3 344.2 -183.9 223 -198 198C-212 173 -324.5 244.1 -324.4 235.7C-324.4 227.3 -211.9 139.4 -228.1 116.2C-244.3 93.1 -389.3 134.6 -398.5 129.5C-407.7 124.3 -281.1 72.4 -271.6 43C-262.1 13.6 -369.7 6.8 -477.3 0L0 0Z" fill="#613fe5"></path></g><g transform="translate(0, 900)"><path d="M0 -477.3C22.5 -439.2 45 -401 56.6 -357.5C68.2 -314.1 68.9 -265.2 83.4 -256.8C98 -248.4 126.3 -280.4 146.6 -287.8C167 -295.2 179.2 -278 198.7 -273.4C218.1 -268.9 244.7 -277 286.4 -286.4C328.1 -295.7 385 -306.3 386.1 -280.5C387.3 -254.8 332.7 -192.8 306.5 -156.2C280.3 -119.6 282.5 -108.4 301.5 -98C320.4 -87.5 356.1 -77.7 388.2 -61.5C420.2 -45.3 448.8 -22.6 477.3 0L0 0Z" fill="#613fe5"></path></g></svg>